# xmcd CD database file
#
# Track frame offsets:
#	150
#	17363
#	38542
#	61470
#	84909
#	105949
#	134183
#	157770
#	186859
#
# Disc length: 2862 seconds
#
# Revision: 0
# Processed by: cddbd v1.4PL0 Copyright (c) Steve Scherf et al.
# Submitted via: Feurio! 1.65 - http://www.feurio.com
#
DISCID=610b2c09
DTITLE=Pat Vig Group - First Album
DYEAR=1997
DGENRE=Blues Rock
TTITLE0=Ridler
TTITLE1=Will You Miss Me
TTITLE2=I'm All Wound Up
TTITLE3=Feeling Blues
TTITLE4=Easy Love
TTITLE5=Movin' Along
TTITLE6=Minstrel
TTITLE7=I'm So Far From You
TTITLE8=Out Of The Skylight
EXTD=(c) 1997 Brennus
EXTT0=
EXTT1=
EXTT2=
EXTT3=
EXTT4=
EXTT5=
EXTT6=
EXTT7=
EXTT8=
PLAYORDER=
